<mxfile host="Electron" agent="Mozilla/5.0 (X11; Linux x86_64) AppleWebKit/537.36 (KHTML, like Gecko) draw.io/26.2.2 Chrome/134.0.6998.178 Electron/35.1.2 Safari/537.36" version="26.2.2">
  <diagram name="Page-1" id="ROIH6FLTOxO8Vbgh24g0">
    <mxGraphModel dx="2064" dy="1324" grid="1" gridSize="10" guides="1" tooltips="1" connect="1" arrows="1" fold="1" page="1" pageScale="1" pageWidth="850" pageHeight="1100" math="0" shadow="0">
      <root>
        <mxCell id="0" />
        <mxCell id="1" parent="0" />
        <mxCell id="_Q8s1T4tgGo4EhFCyhrg-10" value="" style="rounded=0;whiteSpace=wrap;html=1;fillColor=none;strokeColor=none;" vertex="1" parent="1">
          <mxGeometry x="230" y="760" width="800" height="60" as="geometry" />
        </mxCell>
        <mxCell id="BA_4d4q7CHbcYkZiV15_-4" value="" style="endArrow=none;html=1;rounded=0;fontStyle=1;fontSize=21;" parent="1" edge="1">
          <mxGeometry width="50" height="50" relative="1" as="geometry">
            <mxPoint x="80" y="400" as="sourcePoint" />
            <mxPoint x="140" y="400" as="targetPoint" />
          </mxGeometry>
        </mxCell>
        <mxCell id="BA_4d4q7CHbcYkZiV15_-5" value="" style="endArrow=none;html=1;rounded=0;fontStyle=1;fontSize=21;" parent="1" edge="1">
          <mxGeometry width="50" height="50" relative="1" as="geometry">
            <mxPoint x="140" y="400" as="sourcePoint" />
            <mxPoint x="510" y="400" as="targetPoint" />
          </mxGeometry>
        </mxCell>
        <mxCell id="BA_4d4q7CHbcYkZiV15_-6" value="" style="endArrow=none;html=1;rounded=0;fontStyle=1;fontSize=21;" parent="1" edge="1">
          <mxGeometry width="50" height="50" relative="1" as="geometry">
            <mxPoint x="510" y="400" as="sourcePoint" />
            <mxPoint x="1090" y="400" as="targetPoint" />
          </mxGeometry>
        </mxCell>
        <mxCell id="BA_4d4q7CHbcYkZiV15_-7" value="" style="endArrow=none;html=1;rounded=0;fontStyle=1;fontSize=21;" parent="1" edge="1">
          <mxGeometry width="50" height="50" relative="1" as="geometry">
            <mxPoint x="80" y="450" as="sourcePoint" />
            <mxPoint x="80" y="380" as="targetPoint" />
          </mxGeometry>
        </mxCell>
        <mxCell id="BA_4d4q7CHbcYkZiV15_-8" value="" style="endArrow=none;html=1;rounded=0;fontStyle=1;fontSize=21;" parent="1" edge="1">
          <mxGeometry width="50" height="50" relative="1" as="geometry">
            <mxPoint x="140" y="400" as="sourcePoint" />
            <mxPoint x="140" y="300" as="targetPoint" />
          </mxGeometry>
        </mxCell>
        <mxCell id="BA_4d4q7CHbcYkZiV15_-9" value="" style="endArrow=none;html=1;rounded=0;fontStyle=1;fontSize=21;" parent="1" edge="1">
          <mxGeometry width="50" height="50" relative="1" as="geometry">
            <mxPoint x="499" y="400" as="sourcePoint" />
            <mxPoint x="499" y="300" as="targetPoint" />
          </mxGeometry>
        </mxCell>
        <mxCell id="BA_4d4q7CHbcYkZiV15_-10" value="" style="endArrow=none;html=1;rounded=0;fontStyle=1;fontSize=21;" parent="1" edge="1">
          <mxGeometry width="50" height="50" relative="1" as="geometry">
            <mxPoint x="1090" y="450" as="sourcePoint" />
            <mxPoint x="1090" y="360" as="targetPoint" />
          </mxGeometry>
        </mxCell>
        <mxCell id="BA_4d4q7CHbcYkZiV15_-11" value="Timer&lt;div&gt;IRQ&lt;/div&gt;&lt;div&gt;Raised&lt;/div&gt;" style="text;html=1;align=center;verticalAlign=middle;whiteSpace=wrap;rounded=0;fontStyle=1;fontSize=21;" parent="1" vertex="1">
          <mxGeometry x="50" y="320" width="60" height="30" as="geometry" />
        </mxCell>
        <mxCell id="BA_4d4q7CHbcYkZiV15_-12" value="ISR Entered" style="text;html=1;align=center;verticalAlign=middle;whiteSpace=wrap;rounded=0;fontStyle=1;fontSize=21;" parent="1" vertex="1">
          <mxGeometry x="110" y="260" width="60" height="30" as="geometry" />
        </mxCell>
        <mxCell id="BA_4d4q7CHbcYkZiV15_-13" value="ISR&lt;div&gt;Prologue Completed&lt;/div&gt;" style="text;html=1;align=center;verticalAlign=middle;whiteSpace=wrap;rounded=0;fontStyle=1;fontSize=21;" parent="1" vertex="1">
          <mxGeometry x="470" y="240" width="60" height="30" as="geometry" />
        </mxCell>
        <mxCell id="BA_4d4q7CHbcYkZiV15_-14" value="ISR&lt;div&gt;Exit&lt;/div&gt;" style="text;html=1;align=center;verticalAlign=middle;whiteSpace=wrap;rounded=0;fontStyle=1;fontSize=21;" parent="1" vertex="1">
          <mxGeometry x="1060" y="310" width="60" height="30" as="geometry" />
        </mxCell>
        <mxCell id="BA_4d4q7CHbcYkZiV15_-16" value="" style="endArrow=none;html=1;rounded=0;fontStyle=1;fontSize=21;" parent="1" edge="1">
          <mxGeometry width="50" height="50" relative="1" as="geometry">
            <mxPoint x="700" y="400" as="sourcePoint" />
            <mxPoint x="700" y="300" as="targetPoint" />
          </mxGeometry>
        </mxCell>
        <mxCell id="BA_4d4q7CHbcYkZiV15_-17" value="ISR&lt;div&gt;Epilogue Starts&lt;/div&gt;" style="text;html=1;align=center;verticalAlign=middle;whiteSpace=wrap;rounded=0;fontStyle=1;fontSize=21;" parent="1" vertex="1">
          <mxGeometry x="670" y="240" width="60" height="30" as="geometry" />
        </mxCell>
        <mxCell id="BA_4d4q7CHbcYkZiV15_-18" value="" style="endArrow=none;html=1;rounded=0;fontStyle=1;fontSize=21;" parent="1" edge="1">
          <mxGeometry width="50" height="50" relative="1" as="geometry">
            <mxPoint x="460" y="880" as="sourcePoint" />
            <mxPoint x="520" y="880" as="targetPoint" />
          </mxGeometry>
        </mxCell>
        <mxCell id="BA_4d4q7CHbcYkZiV15_-19" value="" style="endArrow=none;html=1;rounded=0;fontStyle=1;fontSize=21;" parent="1" edge="1">
          <mxGeometry width="50" height="50" relative="1" as="geometry">
            <mxPoint x="459.71000000000004" y="880" as="sourcePoint" />
            <mxPoint x="459.71000000000004" y="840" as="targetPoint" />
          </mxGeometry>
        </mxCell>
        <mxCell id="BA_4d4q7CHbcYkZiV15_-20" value="" style="endArrow=none;html=1;rounded=0;fontStyle=1;fontSize=21;" parent="1" edge="1" target="BA_4d4q7CHbcYkZiV15_-22">
          <mxGeometry width="50" height="50" relative="1" as="geometry">
            <mxPoint x="519.71" y="880" as="sourcePoint" />
            <mxPoint x="520" y="760" as="targetPoint" />
          </mxGeometry>
        </mxCell>
        <mxCell id="BA_4d4q7CHbcYkZiV15_-21" value="Timer&lt;div&gt;IRQ&lt;/div&gt;&lt;div&gt;Raised&lt;/div&gt;" style="text;html=1;align=center;verticalAlign=middle;whiteSpace=wrap;rounded=0;fontStyle=1;fontSize=21;" parent="1" vertex="1">
          <mxGeometry x="430" y="790" width="60" height="30" as="geometry" />
        </mxCell>
        <mxCell id="BA_4d4q7CHbcYkZiV15_-22" value="ISR Entered&lt;div&gt;&lt;br&gt;&lt;/div&gt;" style="text;html=1;align=center;verticalAlign=middle;whiteSpace=wrap;rounded=0;fontStyle=1;fontSize=21;" parent="1" vertex="1">
          <mxGeometry x="490" y="690" width="60" height="30" as="geometry" />
        </mxCell>
        <mxCell id="BA_4d4q7CHbcYkZiV15_-23" value="" style="endArrow=none;html=1;rounded=0;fontStyle=1;fontSize=21;" parent="1" edge="1">
          <mxGeometry width="50" height="50" relative="1" as="geometry">
            <mxPoint x="520" y="880" as="sourcePoint" />
            <mxPoint x="740" y="880" as="targetPoint" />
          </mxGeometry>
        </mxCell>
        <mxCell id="BA_4d4q7CHbcYkZiV15_-24" value="" style="endArrow=none;html=1;rounded=0;fontStyle=1;fontSize=21;" parent="1" edge="1">
          <mxGeometry width="50" height="50" relative="1" as="geometry">
            <mxPoint x="740" y="880" as="sourcePoint" />
            <mxPoint x="740" y="780" as="targetPoint" />
          </mxGeometry>
        </mxCell>
        <mxCell id="BA_4d4q7CHbcYkZiV15_-25" value="ISR&lt;div&gt;Epilogue Starts&lt;/div&gt;" style="text;html=1;align=center;verticalAlign=middle;whiteSpace=wrap;rounded=0;fontStyle=1;fontSize=21;" parent="1" vertex="1">
          <mxGeometry x="710" y="720" width="60" height="30" as="geometry" />
        </mxCell>
        <mxCell id="BA_4d4q7CHbcYkZiV15_-26" value="" style="endArrow=none;html=1;rounded=0;fontStyle=1;fontSize=21;" parent="1" edge="1">
          <mxGeometry width="50" height="50" relative="1" as="geometry">
            <mxPoint x="740" y="880" as="sourcePoint" />
            <mxPoint x="790" y="880" as="targetPoint" />
          </mxGeometry>
        </mxCell>
        <mxCell id="BA_4d4q7CHbcYkZiV15_-27" value="" style="endArrow=none;html=1;rounded=0;fontStyle=1;fontSize=21;" parent="1" edge="1">
          <mxGeometry width="50" height="50" relative="1" as="geometry">
            <mxPoint x="790" y="880" as="sourcePoint" />
            <mxPoint x="790" y="820" as="targetPoint" />
          </mxGeometry>
        </mxCell>
        <mxCell id="BA_4d4q7CHbcYkZiV15_-28" value="ISR&lt;div&gt;Exit&lt;/div&gt;" style="text;html=1;align=center;verticalAlign=middle;whiteSpace=wrap;rounded=0;fontStyle=1;fontSize=21;" parent="1" vertex="1">
          <mxGeometry x="760" y="780" width="60" height="30" as="geometry" />
        </mxCell>
        <mxCell id="BA_4d4q7CHbcYkZiV15_-30" value="6" style="endArrow=classic;startArrow=classic;html=1;rounded=0;fontStyle=1;fontSize=21;" parent="1" edge="1">
          <mxGeometry width="50" height="50" relative="1" as="geometry">
            <mxPoint x="80" y="410" as="sourcePoint" />
            <mxPoint x="140" y="410" as="targetPoint" />
          </mxGeometry>
        </mxCell>
        <mxCell id="BA_4d4q7CHbcYkZiV15_-32" value="101" style="endArrow=classic;startArrow=classic;html=1;rounded=0;fontStyle=1;fontSize=21;" parent="1" edge="1">
          <mxGeometry width="50" height="50" relative="1" as="geometry">
            <mxPoint x="79" y="440" as="sourcePoint" />
            <mxPoint x="1089" y="440" as="targetPoint" />
          </mxGeometry>
        </mxCell>
        <mxCell id="BA_4d4q7CHbcYkZiV15_-33" value="6" style="endArrow=classic;startArrow=classic;html=1;rounded=0;fontStyle=1;fontSize=21;" parent="1" edge="1">
          <mxGeometry width="50" height="50" relative="1" as="geometry">
            <mxPoint x="460" y="900" as="sourcePoint" />
            <mxPoint x="520" y="900" as="targetPoint" />
          </mxGeometry>
        </mxCell>
        <mxCell id="BA_4d4q7CHbcYkZiV15_-34" value="27" style="endArrow=classic;startArrow=classic;html=1;rounded=0;fontStyle=1;fontSize=21;" parent="1" edge="1">
          <mxGeometry width="50" height="50" relative="1" as="geometry">
            <mxPoint x="520" y="900" as="sourcePoint" />
            <mxPoint x="790" y="900" as="targetPoint" />
          </mxGeometry>
        </mxCell>
        <mxCell id="_Q8s1T4tgGo4EhFCyhrg-1" value="36" style="endArrow=classic;startArrow=classic;html=1;rounded=0;fontStyle=1;fontSize=21;" edge="1" parent="1">
          <mxGeometry width="50" height="50" relative="1" as="geometry">
            <mxPoint x="140" y="380" as="sourcePoint" />
            <mxPoint x="500" y="380" as="targetPoint" />
          </mxGeometry>
        </mxCell>
        <mxCell id="_Q8s1T4tgGo4EhFCyhrg-3" value="" style="endArrow=none;html=1;rounded=0;" edge="1" parent="1">
          <mxGeometry width="50" height="50" relative="1" as="geometry">
            <mxPoint x="540" y="880" as="sourcePoint" />
            <mxPoint x="540" y="810" as="targetPoint" />
          </mxGeometry>
        </mxCell>
        <mxCell id="_Q8s1T4tgGo4EhFCyhrg-4" value="ISR&lt;div&gt;Prologue&lt;/div&gt;&lt;div&gt;Completed&lt;/div&gt;" style="text;html=1;align=center;verticalAlign=middle;whiteSpace=wrap;rounded=0;fontSize=21;fontStyle=1" vertex="1" parent="1">
          <mxGeometry x="550" y="750" width="60" height="30" as="geometry" />
        </mxCell>
        <mxCell id="_Q8s1T4tgGo4EhFCyhrg-6" value="5" style="endArrow=classic;startArrow=classic;html=1;rounded=0;fontStyle=1;fontSize=21;" edge="1" parent="1">
          <mxGeometry width="50" height="50" relative="1" as="geometry">
            <mxPoint x="740" y="860" as="sourcePoint" />
            <mxPoint x="790" y="860" as="targetPoint" />
          </mxGeometry>
        </mxCell>
        <mxCell id="_Q8s1T4tgGo4EhFCyhrg-7" value="20" style="endArrow=classic;startArrow=classic;html=1;rounded=0;fontStyle=1;fontSize=21;" edge="1" parent="1">
          <mxGeometry width="50" height="50" relative="1" as="geometry">
            <mxPoint x="540" y="860" as="sourcePoint" />
            <mxPoint x="740" y="860" as="targetPoint" />
          </mxGeometry>
        </mxCell>
        <mxCell id="_Q8s1T4tgGo4EhFCyhrg-8" value="20" style="endArrow=classic;startArrow=classic;html=1;rounded=0;fontStyle=1;fontSize=21;" edge="1" parent="1">
          <mxGeometry width="50" height="50" relative="1" as="geometry">
            <mxPoint x="500" y="380" as="sourcePoint" />
            <mxPoint x="700" y="380" as="targetPoint" />
          </mxGeometry>
        </mxCell>
        <mxCell id="_Q8s1T4tgGo4EhFCyhrg-9" value="39" style="endArrow=classic;startArrow=classic;html=1;rounded=0;fontStyle=1;fontSize=21;" edge="1" parent="1">
          <mxGeometry width="50" height="50" relative="1" as="geometry">
            <mxPoint x="701" y="380" as="sourcePoint" />
            <mxPoint x="1090" y="380" as="targetPoint" />
          </mxGeometry>
        </mxCell>
      </root>
    </mxGraphModel>
  </diagram>
</mxfile>
